<svg width="512" height="512" viewBox="0 0 512 512" fill="none" xmlns="http://www.w3.org/2000/svg">
<circle cx="256" cy="256" r="242.5" fill="url(#paint0_linear_128_2)" stroke="#BFBFBF" stroke-width="3"/>
<path d="M282.545 282.558C286.223 279.079 289.166 274.898 291.2 270.262C293.235 265.627 294.319 260.63 294.39 255.568C294.46 250.506 293.515 245.481 291.61 240.791C289.705 236.101 286.88 231.84 283.3 228.26C279.72 224.68 275.459 221.854 270.769 219.95C266.078 218.045 261.054 217.1 255.992 217.17C250.93 217.241 245.933 218.325 241.298 220.359C236.662 222.394 232.481 225.337 229.002 229.015C221.996 236.138 218.088 245.742 218.13 255.733C218.171 265.725 222.16 275.295 229.226 282.359C236.292 289.424 245.863 293.41 255.855 293.449C265.846 293.489 275.449 289.578 282.57 282.57L282.545 282.558Z" stroke="white" stroke-width="27.5" stroke-miterlimit="1.5" stroke-linecap="round" stroke-linejoin="round"/>
<path d="M229.002 229.002C229.002 229.002 193.614 229.116 175.434 211.138C157.646 193.337 139.276 175.876 157.583 157.583C174.98 140.198 193.059 157.393 211.138 175.434C228.889 193.122 229.015 229.002 229.015 229.002H229.002ZM282.558 229.002C282.558 229.002 282.444 193.614 300.422 175.434C318.223 157.646 335.683 139.276 353.977 157.583C371.362 174.98 354.167 193.059 336.125 211.138C318.425 228.889 282.558 229.002 282.558 229.002ZM229.002 282.558C229.002 282.558 229.116 317.945 211.138 336.125C193.337 353.914 175.876 372.283 157.583 353.977C140.198 336.58 157.393 318.501 175.434 300.422C193.122 282.671 229.002 282.558 229.002 282.558ZM282.558 282.558C282.558 282.558 317.945 282.444 336.125 300.422C353.914 318.223 372.283 335.683 353.977 353.977C336.58 371.362 318.501 354.167 300.422 336.125C282.671 318.425 282.558 282.558 282.558 282.558Z" stroke="white" stroke-width="27.5" stroke-miterlimit="1.5" stroke-linecap="round" stroke-linejoin="round"/>
<path d="M459 256C459 368.114 368.114 459 256 459C143.886 459 53 368.114 53 256C53 143.886 143.886 53 256 53C368.114 53 459 143.886 459 256ZM83.7037 256C83.7037 351.157 160.843 428.296 256 428.296C351.157 428.296 428.296 351.157 428.296 256C428.296 160.843 351.157 83.7037 256 83.7037C160.843 83.7037 83.7037 160.843 83.7037 256Z" fill="white"/>
<defs>
<linearGradient id="paint0_linear_128_2" x1="500" y1="12" x2="12" y2="500" gradientUnits="userSpaceOnUse">
<stop stop-color="#73DEFF"/>
<stop offset="0.235577" stop-color="#0088FF"/>
<stop offset="1" stop-color="#BCF4FF"/>
</linearGradient>
</defs>
</svg>
